<svg width="98" height="111" viewBox="0 0 98 111" fill="none" xmlns="http://www.w3.org/2000/svg">
<path d="M35.6364 0V8.88H62.3636V0H35.6364ZM49 13.32C21.9943 13.32 0 35.2425 0 62.16C0 89.0775 21.9943 111 49 111C76.0057 111 98 89.0775 98 62.16C98 49.2042 92.9364 37.3411 84.6364 28.5825L92.2926 20.9513L85.8892 14.5688L77.8153 22.6163C69.7415 16.7541 59.7361 13.32 49 13.32ZM49 22.2C71.1857 22.2 89.0909 40.0467 89.0909 62.16C89.0909 84.2733 71.1857 102.12 49 102.12C26.8143 102.12 8.90909 84.2733 8.90909 62.16C8.90909 40.0467 26.8143 22.2 49 22.2Z" fill="url(#paint0_linear_70_644)"/>
<defs>
<linearGradient id="paint0_linear_70_644" x1="49" y1="0" x2="49" y2="111" gradientUnits="userSpaceOnUse">
<stop stop-color="white"/>
<stop offset="1" stop-color="white" stop-opacity="0.7"/>
</linearGradient>
</defs>
</svg>
